<svg xmlns="http://www.w3.org/2000/svg" viewBox="0 0 960 600" role="img" aria-label="Фасад каркасного дома КД-08, 6×8 м">
<defs>
  <pattern id="hatch" width="7" height="7" patternTransform="rotate(45)" patternUnits="userSpaceOnUse">
    <line x1="0" y1="0" x2="0" y2="7" stroke="#3A362C" stroke-width="1" stroke-opacity=".34"/>
  </pattern>
  <pattern id="board" width="11" height="8" patternUnits="userSpaceOnUse">
    <line x1="0" y1="0" x2="0" y2="8" stroke="#2A2620" stroke-width=".7" stroke-opacity=".2"/>
  </pattern>
</defs>
  <rect width="960" height="600" fill="#F3EDE3"/>
  <line x1="0" y1="490" x2="960" y2="490" stroke="#2A2620" stroke-width="1" stroke-opacity=".1"/>
  <text x="34" y="46" font-family="Menlo, Consolas, monospace" font-size="21" letter-spacing="1.5" fill="#2A2620" fill-opacity=".42">КД-08</text>
  <g>
    <path d="M160.0 370.0 L396.0 290.6 L808.4 391.2 L808.4 405.2 L396.0 304.6 L160.0 384.0 Z" fill="url(#hatch)" stroke="#2A2620" stroke-width="2.4" stroke-linejoin="round"/>
    <rect x="186.0" y="362.0" width="420" height="118" fill="#C08A4A" fill-opacity=".16"/>
    <rect x="186.0" y="362.0" width="420" height="118" fill="url(#board)"/>
    <rect x="186.0" y="362.0" width="420" height="118" fill="none" stroke="#2A2620" stroke-width="2.4"/>
    
    <rect x="606.0" y="466.0" width="176.4" height="9" fill="#C08A4A" fill-opacity=".26" stroke="#2A2620" stroke-width="1.3" stroke-opacity=".55"/>
    <line x1="772.4" y1="466.0" x2="772.4" y2="399.2" stroke="#2A2620" stroke-width="2.4" stroke-opacity=".6"/>
    <line x1="680.1" y1="466.0" x2="680.1" y2="384.8" stroke="#2A2620" stroke-width="2.4" stroke-opacity=".6"/>
    <rect x="372.0" y="412.0" width="48" height="68" fill="#3A362C" fill-opacity=".15" stroke="#2A2620" stroke-width="1.7" stroke-opacity=".78"/>
    <g><rect x="221.0" y="395.0" width="58" height="42" rx="2" fill="#2F5D3F" fill-opacity=".12" stroke="#2A2620" stroke-width="1.4" stroke-opacity=".72"/>
      <line x1="250.0" y1="395.0" x2="250.0" y2="437.0" stroke="#2A2620" stroke-width=".9" stroke-opacity=".4"/></g>
    <g><rect x="367.0" y="395.0" width="58" height="42" rx="2" fill="#2F5D3F" fill-opacity=".12" stroke="#2A2620" stroke-width="1.4" stroke-opacity=".72"/>
      <line x1="396.0" y1="395.0" x2="396.0" y2="437.0" stroke="#2A2620" stroke-width=".9" stroke-opacity=".4"/></g>
    <g><rect x="513.0" y="395.0" width="58" height="42" rx="2" fill="#2F5D3F" fill-opacity=".12" stroke="#2A2620" stroke-width="1.4" stroke-opacity=".72"/>
      <line x1="542.0" y1="395.0" x2="542.0" y2="437.0" stroke="#2A2620" stroke-width=".9" stroke-opacity=".4"/></g>
    <rect x="180.0" y="480.0" width="608.4" height="10" fill="#3A362C" fill-opacity=".28" stroke="#2A2620" stroke-width="1.5" stroke-opacity=".55"/>
    <g>
    <line x1="186" y1="538" x2="606" y2="538" stroke="#2A2620" stroke-width="1" stroke-opacity=".45"/>
    <path d="M181 543 L191 533" stroke="#2A2620" stroke-width="1.4" stroke-opacity=".65"/><path d="M601 543 L611 533" stroke="#2A2620" stroke-width="1.4" stroke-opacity=".65"/>
    <line x1="186" y1="512" x2="186" y2="548" stroke="#2A2620" stroke-width=".8" stroke-opacity=".25"/>
    <line x1="606" y1="512" x2="606" y2="548" stroke="#2A2620" stroke-width=".8" stroke-opacity=".25"/>
    <text x="396" y="529" text-anchor="middle" font-family="Menlo, Consolas, monospace" font-size="19" fill="#2A2620" fill-opacity=".62">6 м</text>
  </g>
  </g>
</svg>