<svg xmlns="http://www.w3.org/2000/svg" viewBox="0 0 960 600" role="img" aria-label="Каркасный дом КД-42, 8×10 м, 140 м²">
<defs>
  <linearGradient id="sky" x1="0" y1="0" x2="0" y2="1">
    <stop offset="0" stop-color="#DFCDB4"/><stop offset=".45" stop-color="#EDE1CE"/><stop offset="1" stop-color="#F4EFE7"/>
  </linearGradient>
  <radialGradient id="sunGlow" cx=".5" cy=".5" r=".5">
    <stop offset="0" stop-color="#FBE9CC" stop-opacity=".95"/>
    <stop offset=".45" stop-color="#F2D3A2" stop-opacity=".55"/>
    <stop offset="1" stop-color="#F2D3A2" stop-opacity="0"/>
  </radialGradient>
  <linearGradient id="glassGrad" x1="0" y1="0" x2=".4" y2="1">
    <stop offset="0" stop-color="#FFF1D8"/><stop offset="1" stop-color="#F5CE8E"/>
  </linearGradient>
  <linearGradient id="wallShade" x1="0" y1="0" x2="1" y2="0">
    <stop offset="0" stop-color="#000" stop-opacity=".13"/><stop offset=".4" stop-color="#000" stop-opacity="0"/>
    <stop offset="1" stop-color="#000" stop-opacity=".10"/>
  </linearGradient>
  <linearGradient id="mist" x1="0" y1="0" x2="0" y2="1">
    <stop offset="0" stop-color="#fff" stop-opacity="0"/><stop offset="1" stop-color="#fff" stop-opacity=".55"/>
  </linearGradient>
  <linearGradient id="groundGrad" x1="0" y1="0" x2="0" y2="1">
    <stop offset="0" stop-color="#E7DFD0"/><stop offset="1" stop-color="#D6CCB8"/>
  </linearGradient>
  <filter id="grain"><feTurbulence type="fractalNoise" baseFrequency=".9" numOctaves="2" stitchTiles="stitch"/>
    <feColorMatrix type="saturate" values="0"/>
    <feComponentTransfer><feFuncA type="linear" slope=".055"/></feComponentTransfer>
  </filter>
  <filter id="soft"><feGaussianBlur stdDeviation="6"/></filter>
</defs>
  <rect width="960" height="600" fill="url(#sky)"/>
  <circle cx="831.6851838845026" cy="150" r="190" fill="url(#sunGlow)"/>
  <path d="M-20 440 L-30.1 400.0 L-20.0 308.1 L-9.9 400.0 L-5.8 400.0 L12.0 308.6 L29.8 400.0 L33.7 400.0 L44.0 331.8 L54.3 400.0 L60.4 400.0 L76.0 340.5 L91.6 400.0 L95.3 400.0 L108.0 325.3 L120.7 400.0 L123.6 400.0 L140.0 321.8 L156.4 400.0 L160.7 400.0 L172.0 308.3 L183.3 400.0 L193.6 400.0 L204.0 296.3 L214.4 400.0 L224.1 400.0 L236.0 297.7 L247.9 400.0 L251.7 400.0 L268.0 337.0 L284.3 400.0 L283.7 400.0 L300.0 296.9 L316.3 400.0 L322.0 400.0 L332.0 334.9 L342.0 400.0 L348.1 400.0 L364.0 291.2 L379.9 400.0 L382.3 400.0 L396.0 340.0 L409.7 400.0 L417.8 400.0 L428.0 294.0 L438.2 400.0 L445.7 400.0 L460.0 303.8 L474.3 400.0 L475.2 400.0 L492.0 339.4 L508.8 400.0 L513.6 400.0 L524.0 335.1 L534.4 400.0 L542.4 400.0 L556.0 316.2 L569.6 400.0 L572.0 400.0 L588.0 317.2 L604.0 400.0 L604.4 400.0 L620.0 325.6 L635.6 400.0 L640.7 400.0 L652.0 299.5 L663.3 400.0 L666.3 400.0 L684.0 283.5 L701.7 400.0 L702.2 400.0 L716.0 341.8 L729.8 400.0 L730.4 400.0 L748.0 332.6 L765.6 400.0 L766.4 400.0 L780.0 284.3 L793.6 400.0 L800.1 400.0 L812.0 299.0 L823.9 400.0 L833.6 400.0 L844.0 284.3 L854.4 400.0 L862.6 400.0 L876.0 325.8 L889.4 400.0 L892.8 400.0 L908.0 325.6 L923.2 400.0 L923.9 400.0 L940.0 340.1 L956.1 400.0 L954.7 400.0 L972.0 318.6 L989.3 400.0 L1000 440 Z" fill="#B9C6B7" opacity="0.7"/>
  <path d="M-20 488 L-36.0 448.0 L-20.0 300.7 L-4.0 448.0 L3.3 448.0 L20.0 347.9 L36.7 448.0 L41.8 448.0 L60.0 372.3 L78.2 448.0 L84.2 448.0 L100.0 335.3 L115.8 448.0 L119.4 448.0 L140.0 374.6 L160.6 448.0 L161.9 448.0 L180.0 368.2 L198.1 448.0 L199.4 448.0 L220.0 319.5 L240.6 448.0 L246.2 448.0 L260.0 304.6 L273.8 448.0 L284.4 448.0 L300.0 320.9 L315.6 448.0 L327.3 448.0 L340.0 333.8 L352.7 448.0 L360.5 448.0 L380.0 300.6 L399.5 448.0 L407.5 448.0 L420.0 335.9 L432.5 448.0 L441.9 448.0 L460.0 354.4 L478.1 448.0 L481.1 448.0 L500.0 296.8 L518.9 448.0 L518.6 448.0 L540.0 310.0 L561.4 448.0 L557.8 448.0 L580.0 352.0 L602.2 448.0 L604.6 448.0 L620.0 358.4 L635.4 448.0 L640.8 448.0 L660.0 347.1 L679.2 448.0 L681.7 448.0 L700.0 355.9 L718.3 448.0 L724.2 448.0 L740.0 304.7 L755.8 448.0 L762.3 448.0 L780.0 354.5 L797.7 448.0 L801.8 448.0 L820.0 302.3 L838.2 448.0 L839.6 448.0 L860.0 302.9 L880.4 448.0 L881.8 448.0 L900.0 357.6 L918.2 448.0 L925.8 448.0 L940.0 342.0 L954.2 448.0 L957.9 448.0 L980.0 333.8 L1002.1 448.0 L1000 488 Z" fill="#87A189" opacity="0.85"/>
  <rect x="0" y="360" width="960" height="130" fill="url(#mist)" opacity=".7"/>
  <path d="M0 470 Q300 452 560 466 T960 450 V600 H0 Z" fill="url(#groundGrad)"/>
  <g transform="translate(78 504) scale(0.62)">
    <rect x="-4" y="-24" width="8" height="28" rx="4" fill="#2F5D3F" opacity=".8"/>
    <path d="M0 -168 Q14 -140 32 -108 Q16 -100 0 -100 Q-16 -100 -32 -108 Q-14 -140 0 -168 Z" fill="#4F6E58" opacity=".9" stroke="#4F6E58" stroke-width="7" stroke-linejoin="round" stroke-opacity=".9"/>
    <path d="M0 -132 Q18 -98 42 -62 Q20 -52 0 -52 Q-20 -52 -42 -62 Q-18 -98 0 -132 Z" fill="#4F6E58" stroke="#4F6E58" stroke-width="8" stroke-linejoin="round"/>
    <path d="M0 -92 Q22 -54 52 -18 Q26 -8 0 -8 Q-26 -8 -52 -18 Q-22 -54 0 -92 Z" fill="#4F6E58" stroke="#4F6E58" stroke-width="9" stroke-linejoin="round"/>
  </g>
  <g>
    <ellipse cx="470" cy="518" rx="331.2" ry="23" fill="#C0B6A0" opacity=".45"/>
    <g>
      <path d="M102 504 H240 V516 H94 Z" fill="#C08A4A"/>
      <path d="M94 516 H240 v6 H92 Z" fill="#8A5E2B" opacity=".65"/>
      <path d="M96 349 H240 v10.304000000000002 H98 Z" fill="#221F17" opacity=".92"/>
      <rect x="102" y="349" width="10.304000000000002" height="155" fill="#8A5E2B"/>
      <rect x="177.9" y="349" width="9.016" height="155" fill="#8A5E2B" opacity=".75"/>
      <rect x="102" y="464.9" width="138" height="7.084000000000001" fill="#8A5E2B" opacity=".45"/>
    </g>
    <rect x="548.2" y="186.712" width="23" height="74.152" rx="5" fill="#8A857A"/>
    <rect x="240" y="280" width="460" height="230" rx="9.200000000000001" fill="#C08A4A"/>
    <polygon points="240,280 470,160.39999999999998 700,280" fill="#DCB47F" stroke="#DCB47F" stroke-width="6.44" stroke-linejoin="round"/>
    <polygon points="470,160.39999999999998 700,280 470,280" fill="#8A5E2B" opacity=".22" stroke="#8A5E2B" stroke-width="5.152000000000001" stroke-linejoin="round" stroke-opacity=".22"/>
    <rect x="240" y="280" width="460" height="230" rx="9.200000000000001" fill="url(#wallShade)"/>
    <line x1="240" y1="303" x2="700" y2="303" stroke="#8A5E2B" stroke-width=".9" opacity=".2"/><line x1="240" y1="326" x2="700" y2="326" stroke="#8A5E2B" stroke-width=".9" opacity=".2"/><line x1="240" y1="349" x2="700" y2="349" stroke="#8A5E2B" stroke-width=".9" opacity=".2"/><line x1="240" y1="372" x2="700" y2="372" stroke="#8A5E2B" stroke-width=".9" opacity=".2"/><line x1="240" y1="395" x2="700" y2="395" stroke="#8A5E2B" stroke-width=".9" opacity=".2"/><line x1="240" y1="418" x2="700" y2="418" stroke="#8A5E2B" stroke-width=".9" opacity=".2"/><line x1="240" y1="441" x2="700" y2="441" stroke="#8A5E2B" stroke-width=".9" opacity=".2"/><line x1="240" y1="464" x2="700" y2="464" stroke="#8A5E2B" stroke-width=".9" opacity=".2"/><line x1="240" y1="487" x2="700" y2="487" stroke="#8A5E2B" stroke-width=".9" opacity=".2"/><line x1="240" y1="510" x2="700" y2="510" stroke="#8A5E2B" stroke-width=".9" opacity=".2"/>
    <path d="M217 285.152 L470 152.67199999999997 L723 285.152 L723 300.608 L470 169.41599999999997 L217 300.608 Z" fill="#221F17" stroke="#221F17" stroke-width="7.084000000000001" stroke-linejoin="round"/>
    <path d="M217 285.152 L470 152.67199999999997 L470 161.688 L228.5 292.88  Z" fill="#332E23" opacity=".9" stroke="#332E23" stroke-width="5.152000000000001" stroke-linejoin="round" stroke-opacity=".9"/>
    <g><rect x="276.8" y="307.6" width="46" height="59.800000000000004" rx="4.14" fill="url(#glassGrad)"/><line x1="299.8" y1="307.6" x2="299.8" y2="367.40000000000003" stroke="#F4EFE7" stroke-width="2"/>
      <rect x="276.8" y="307.6" width="46" height="59.800000000000004" rx="4.14" fill="none" stroke="#F4EFE7" stroke-width="3" stroke-linejoin="round"/></g><g><rect x="359.6" y="307.6" width="46" height="59.800000000000004" rx="4.14" fill="url(#glassGrad)"/><line x1="382.6" y1="307.6" x2="382.6" y2="367.40000000000003" stroke="#F4EFE7" stroke-width="2"/>
      <rect x="359.6" y="307.6" width="46" height="59.800000000000004" rx="4.14" fill="none" stroke="#F4EFE7" stroke-width="3" stroke-linejoin="round"/></g><g><rect x="456.2" y="307.6" width="46" height="59.800000000000004" rx="4.14" fill="url(#glassGrad)"/><line x1="479.2" y1="307.6" x2="479.2" y2="367.40000000000003" stroke="#F4EFE7" stroke-width="2"/>
      <rect x="456.2" y="307.6" width="46" height="59.800000000000004" rx="4.14" fill="none" stroke="#F4EFE7" stroke-width="3" stroke-linejoin="round"/></g><g><rect x="525.2" y="307.6" width="46" height="59.800000000000004" rx="4.14" fill="url(#glassGrad)"/><line x1="548.2" y1="307.6" x2="548.2" y2="367.40000000000003" stroke="#F4EFE7" stroke-width="2"/>
      <rect x="525.2" y="307.6" width="46" height="59.800000000000004" rx="4.14" fill="none" stroke="#F4EFE7" stroke-width="3" stroke-linejoin="round"/></g><g><rect x="598.8" y="307.6" width="46" height="59.800000000000004" rx="4.14" fill="url(#glassGrad)"/><line x1="621.8" y1="307.6" x2="621.8" y2="367.40000000000003" stroke="#F4EFE7" stroke-width="2"/>
      <rect x="598.8" y="307.6" width="46" height="59.800000000000004" rx="4.14" fill="none" stroke="#F4EFE7" stroke-width="3" stroke-linejoin="round"/></g><g><rect x="276.8" y="408.8" width="138" height="78.2" rx="12.42" fill="url(#glassGrad)"/><line x1="322.8" y1="408.8" x2="322.8" y2="487" stroke="#F4EFE7" stroke-width="5.5200000000000005"/><line x1="368.8" y1="408.8" x2="368.8" y2="487" stroke="#F4EFE7" stroke-width="5.5200000000000005"/>
      <rect x="276.8" y="408.8" width="138" height="78.2" rx="12.42" fill="none" stroke="#F4EFE7" stroke-width="7.59" stroke-linejoin="round"/></g><g><rect x="456.2" y="419.748" width="46" height="56.304" rx="4.14" fill="url(#glassGrad)"/><line x1="479.2" y1="419.748" x2="479.2" y2="476.052" stroke="#F4EFE7" stroke-width="2"/>
      <rect x="456.2" y="419.748" width="46" height="56.304" rx="4.14" fill="none" stroke="#F4EFE7" stroke-width="3" stroke-linejoin="round"/></g><g><rect x="525.2" y="419.748" width="46" height="56.304" rx="4.14" fill="url(#glassGrad)"/><line x1="548.2" y1="419.748" x2="548.2" y2="476.052" stroke="#F4EFE7" stroke-width="2"/>
      <rect x="525.2" y="419.748" width="46" height="56.304" rx="4.14" fill="none" stroke="#F4EFE7" stroke-width="3" stroke-linejoin="round"/></g><g>
      <rect x="628.7" y="367.4" width="43.7" height="142.6" rx="6" fill="#221F17"/>
      <rect x="634.22" y="388.1" width="12.88" height="59.800000000000004" rx="5" fill="url(#glassGrad)" opacity=".8"/>
      <rect x="621.8" y="506" width="57.5" height="6" rx="4" fill="#8A857A" opacity=".55"/>
    </g>
  </g>
  <g transform="translate(872 510) scale(0.78)">
    <rect x="-4" y="-24" width="8" height="28" rx="4" fill="#2F5D3F" opacity=".8"/>
    <path d="M0 -168 Q14 -140 32 -108 Q16 -100 0 -100 Q-16 -100 -32 -108 Q-14 -140 0 -168 Z" fill="#2F5D3F" opacity=".9" stroke="#2F5D3F" stroke-width="7" stroke-linejoin="round" stroke-opacity=".9"/>
    <path d="M0 -132 Q18 -98 42 -62 Q20 -52 0 -52 Q-20 -52 -42 -62 Q-18 -98 0 -132 Z" fill="#2F5D3F" stroke="#2F5D3F" stroke-width="8" stroke-linejoin="round"/>
    <path d="M0 -92 Q22 -54 52 -18 Q26 -8 0 -8 Q-26 -8 -52 -18 Q-22 -54 0 -92 Z" fill="#2F5D3F" stroke="#2F5D3F" stroke-width="9" stroke-linejoin="round"/>
  </g>
  <path d="M0 560 Q260 544 520 556 T960 544 V600 H0 Z" fill="#C0B6A0" opacity=".3"/>
  <rect width="960" height="600" filter="url(#grain)" opacity=".45"/>
</svg>