<svg xmlns="http://www.w3.org/2000/svg" viewBox="0 0 960 600" role="img" aria-label="Фасад каркасного дома КД-23, 6×6 м">
<defs>
  <pattern id="hatch" width="7" height="7" patternTransform="rotate(45)" patternUnits="userSpaceOnUse">
    <line x1="0" y1="0" x2="0" y2="7" stroke="#3A362C" stroke-width="1" stroke-opacity=".34"/>
  </pattern>
  <pattern id="board" width="11" height="8" patternUnits="userSpaceOnUse">
    <line x1="0" y1="0" x2="0" y2="8" stroke="#2A2620" stroke-width=".7" stroke-opacity=".2"/>
  </pattern>
</defs>
  <rect width="960" height="600" fill="#F3EDE3"/>
  <line x1="0" y1="490" x2="960" y2="490" stroke="#2A2620" stroke-width="1" stroke-opacity=".1"/>
  <text x="34" y="46" font-family="Menlo, Consolas, monospace" font-size="21" letter-spacing="1.5" fill="#2A2620" fill-opacity=".42">КД-23</text>
  <g>
    <path d="M244.0 328.0 L480.0 248.6 L716.0 328.0 L716.0 342.0 L480.0 262.6 L244.0 342.0 Z" fill="url(#hatch)" stroke="#2A2620" stroke-width="2.4" stroke-linejoin="round"/>
    <rect x="270.0" y="320.0" width="420" height="160" fill="#C08A4A" fill-opacity=".16"/>
    <rect x="270.0" y="320.0" width="420" height="160" fill="url(#board)"/>
    <rect x="270.0" y="320.0" width="420" height="160" fill="none" stroke="#2A2620" stroke-width="2.4"/>
    
    <rect x="456.0" y="387.0" width="48" height="93" fill="#3A362C" fill-opacity=".15" stroke="#2A2620" stroke-width="1.7" stroke-opacity=".78"/>
    <g><rect x="305.0" y="364.8" width="58" height="58" rx="2" fill="#2F5D3F" fill-opacity=".12" stroke="#2A2620" stroke-width="1.4" stroke-opacity=".72"/>
      <line x1="334.0" y1="364.8" x2="334.0" y2="422.8" stroke="#2A2620" stroke-width=".9" stroke-opacity=".4"/></g>
    <g><rect x="451.0" y="364.8" width="58" height="58" rx="2" fill="#2F5D3F" fill-opacity=".12" stroke="#2A2620" stroke-width="1.4" stroke-opacity=".72"/>
      <line x1="480.0" y1="364.8" x2="480.0" y2="422.8" stroke="#2A2620" stroke-width=".9" stroke-opacity=".4"/></g>
    <g><rect x="597.0" y="364.8" width="58" height="58" rx="2" fill="#2F5D3F" fill-opacity=".12" stroke="#2A2620" stroke-width="1.4" stroke-opacity=".72"/>
      <line x1="626.0" y1="364.8" x2="626.0" y2="422.8" stroke="#2A2620" stroke-width=".9" stroke-opacity=".4"/></g>
    <rect x="264.0" y="480.0" width="432.0" height="10" fill="#3A362C" fill-opacity=".28" stroke="#2A2620" stroke-width="1.5" stroke-opacity=".55"/>
    <g>
    <line x1="270" y1="538" x2="690" y2="538" stroke="#2A2620" stroke-width="1" stroke-opacity=".45"/>
    <path d="M265 543 L275 533" stroke="#2A2620" stroke-width="1.4" stroke-opacity=".65"/><path d="M685 543 L695 533" stroke="#2A2620" stroke-width="1.4" stroke-opacity=".65"/>
    <line x1="270" y1="512" x2="270" y2="548" stroke="#2A2620" stroke-width=".8" stroke-opacity=".25"/>
    <line x1="690" y1="512" x2="690" y2="548" stroke="#2A2620" stroke-width=".8" stroke-opacity=".25"/>
    <text x="480" y="529" text-anchor="middle" font-family="Menlo, Consolas, monospace" font-size="19" fill="#2A2620" fill-opacity=".62">6 м</text>
  </g>
  </g>
</svg>