<svg xmlns="http://www.w3.org/2000/svg" viewBox="0 0 1080 1080" width="1080" height="1080" role="img" aria-label="QR-код на сайт каркаскомфорт.рф">
  <title>Каркас Комфорт — каркаскомфорт.рф</title>
  <rect width="1080" height="1080" fill="#14171A"/>
  <g fill="#F8F9F6" shape-rendering="crispEdges"><rect x="96" y="96" width="24" height="24"/><rect x="120" y="96" width="24" height="24"/><rect x="144" y="96" width="24" height="24"/><rect x="168" y="96" width="24" height="24"/><rect x="192" y="96" width="24" height="24"/><rect x="216" y="96" width="24" height="24"/><rect x="240" y="96" width="24" height="24"/><rect x="288" y="96" width="24" height="24"/><rect x="336" y="96" width="24" height="24"/><rect x="408" y="96" width="24" height="24"/><rect x="456" y="96" width="24" height="24"/><rect x="480" y="96" width="24" height="24"/><rect x="528" y="96" width="24" height="24"/><rect x="576" y="96" width="24" height="24"/><rect x="600" y="96" width="24" height="24"/><rect x="672" y="96" width="24" height="24"/><rect x="696" y="96" width="24" height="24"/><rect x="768" y="96" width="24" height="24"/><rect x="816" y="96" width="24" height="24"/><rect x="840" y="96" width="24" height="24"/><rect x="864" y="96" width="24" height="24"/><rect x="888" y="96" width="24" height="24"/><rect x="912" y="96" width="24" height="24"/><rect x="936" y="96" width="24" height="24"/><rect x="960" y="96" width="24" height="24"/><rect x="96" y="120" width="24" height="24"/><rect x="240" y="120" width="24" height="24"/><rect x="288" y="120" width="24" height="24"/><rect x="408" y="120" width="24" height="24"/><rect x="432" y="120" width="24" height="24"/><rect x="504" y="120" width="24" height="24"/><rect x="552" y="120" width="24" height="24"/><rect x="576" y="120" width="24" height="24"/><rect x="672" y="120" width="24" height="24"/><rect x="696" y="120" width="24" height="24"/><rect x="720" y="120" width="24" height="24"/><rect x="744" y="120" width="24" height="24"/><rect x="768" y="120" width="24" height="24"/><rect x="816" y="120" width="24" height="24"/><rect x="960" y="120" width="24" height="24"/><rect x="96" y="144" width="24" height="24"/><rect x="144" y="144" width="24" height="24"/><rect x="168" y="144" width="24" height="24"/><rect x="192" y="144" width="24" height="24"/><rect x="240" y="144" width="24" height="24"/><rect x="288" y="144" width="24" height="24"/><rect x="384" y="144" width="24" height="24"/><rect x="432" y="144" width="24" height="24"/><rect x="456" y="144" width="24" height="24"/><rect x="504" y="144" width="24" height="24"/><rect x="600" y="144" width="24" height="24"/><rect x="624" y="144" width="24" height="24"/><rect x="744" y="144" width="24" height="24"/><rect x="816" y="144" width="24" height="24"/><rect x="864" y="144" width="24" height="24"/><rect x="888" y="144" width="24" height="24"/><rect x="912" y="144" width="24" height="24"/><rect x="960" y="144" width="24" height="24"/><rect x="96" y="168" width="24" height="24"/><rect x="144" y="168" width="24" height="24"/><rect x="168" y="168" width="24" height="24"/><rect x="192" y="168" width="24" height="24"/><rect x="240" y="168" width="24" height="24"/><rect x="432" y="168" width="24" height="24"/><rect x="480" y="168" width="24" height="24"/><rect x="504" y="168" width="24" height="24"/><rect x="552" y="168" width="24" height="24"/><rect x="576" y="168" width="24" height="24"/><rect x="624" y="168" width="24" height="24"/><rect x="672" y="168" width="24" height="24"/><rect x="696" y="168" width="24" height="24"/><rect x="720" y="168" width="24" height="24"/><rect x="744" y="168" width="24" height="24"/><rect x="816" y="168" width="24" height="24"/><rect x="864" y="168" width="24" height="24"/><rect x="888" y="168" width="24" height="24"/><rect x="912" y="168" width="24" height="24"/><rect x="960" y="168" width="24" height="24"/><rect x="96" y="192" width="24" height="24"/><rect x="144" y="192" width="24" height="24"/><rect x="168" y="192" width="24" height="24"/><rect x="192" y="192" width="24" height="24"/><rect x="240" y="192" width="24" height="24"/><rect x="312" y="192" width="24" height="24"/><rect x="336" y="192" width="24" height="24"/><rect x="360" y="192" width="24" height="24"/><rect x="432" y="192" width="24" height="24"/><rect x="480" y="192" width="24" height="24"/><rect x="528" y="192" width="24" height="24"/><rect x="600" y="192" width="24" height="24"/><rect x="624" y="192" width="24" height="24"/><rect x="648" y="192" width="24" height="24"/><rect x="672" y="192" width="24" height="24"/><rect x="696" y="192" width="24" height="24"/><rect x="720" y="192" width="24" height="24"/><rect x="816" y="192" width="24" height="24"/><rect x="864" y="192" width="24" height="24"/><rect x="888" y="192" width="24" height="24"/><rect x="912" y="192" width="24" height="24"/><rect x="960" y="192" width="24" height="24"/><rect x="96" y="216" width="24" height="24"/><rect x="240" y="216" width="24" height="24"/><rect x="288" y="216" width="24" height="24"/><rect x="360" y="216" width="24" height="24"/><rect x="384" y="216" width="24" height="24"/><rect x="480" y="216" width="24" height="24"/><rect x="576" y="216" width="24" height="24"/><rect x="624" y="216" width="24" height="24"/><rect x="648" y="216" width="24" height="24"/><rect x="696" y="216" width="24" height="24"/><rect x="720" y="216" width="24" height="24"/><rect x="744" y="216" width="24" height="24"/><rect x="768" y="216" width="24" height="24"/><rect x="816" y="216" width="24" height="24"/><rect x="960" y="216" width="24" height="24"/><rect x="96" y="240" width="24" height="24"/><rect x="120" y="240" width="24" height="24"/><rect x="144" y="240" width="24" height="24"/><rect x="168" y="240" width="24" height="24"/><rect x="192" y="240" width="24" height="24"/><rect x="216" y="240" width="24" height="24"/><rect x="240" y="240" width="24" height="24"/><rect x="288" y="240" width="24" height="24"/><rect x="336" y="240" width="24" height="24"/><rect x="384" y="240" width="24" height="24"/><rect x="432" y="240" width="24" height="24"/><rect x="480" y="240" width="24" height="24"/><rect x="528" y="240" width="24" height="24"/><rect x="576" y="240" width="24" height="24"/><rect x="624" y="240" width="24" height="24"/><rect x="672" y="240" width="24" height="24"/><rect x="720" y="240" width="24" height="24"/><rect x="768" y="240" width="24" height="24"/><rect x="816" y="240" width="24" height="24"/><rect x="840" y="240" width="24" height="24"/><rect x="864" y="240" width="24" height="24"/><rect x="888" y="240" width="24" height="24"/><rect x="912" y="240" width="24" height="24"/><rect x="936" y="240" width="24" height="24"/><rect x="960" y="240" width="24" height="24"/><rect x="288" y="264" width="24" height="24"/><rect x="312" y="264" width="24" height="24"/><rect x="336" y="264" width="24" height="24"/><rect x="408" y="264" width="24" height="24"/><rect x="432" y="264" width="24" height="24"/><rect x="456" y="264" width="24" height="24"/><rect x="480" y="264" width="24" height="24"/><rect x="552" y="264" width="24" height="24"/><rect x="672" y="264" width="24" height="24"/><rect x="696" y="264" width="24" height="24"/><rect x="768" y="264" width="24" height="24"/><rect x="144" y="288" width="24" height="24"/><rect x="168" y="288" width="24" height="24"/><rect x="192" y="288" width="24" height="24"/><rect x="240" y="288" width="24" height="24"/><rect x="288" y="288" width="24" height="24"/><rect x="312" y="288" width="24" height="24"/><rect x="408" y="288" width="24" height="24"/><rect x="456" y="288" width="24" height="24"/><rect x="504" y="288" width="24" height="24"/><rect x="528" y="288" width="24" height="24"/><rect x="552" y="288" width="24" height="24"/><rect x="600" y="288" width="24" height="24"/><rect x="672" y="288" width="24" height="24"/><rect x="720" y="288" width="24" height="24"/><rect x="768" y="288" width="24" height="24"/><rect x="792" y="288" width="24" height="24"/><rect x="816" y="288" width="24" height="24"/><rect x="840" y="288" width="24" height="24"/><rect x="912" y="288" width="24" height="24"/><rect x="936" y="288" width="24" height="24"/><rect x="960" y="288" width="24" height="24"/><rect x="96" y="312" width="24" height="24"/><rect x="192" y="312" width="24" height="24"/><rect x="216" y="312" width="24" height="24"/><rect x="264" y="312" width="24" height="24"/><rect x="384" y="312" width="24" height="24"/><rect x="432" y="312" width="24" height="24"/><rect x="480" y="312" width="24" height="24"/><rect x="504" y="312" width="24" height="24"/><rect x="528" y="312" width="24" height="24"/><rect x="552" y="312" width="24" height="24"/><rect x="600" y="312" width="24" height="24"/><rect x="648" y="312" width="24" height="24"/><rect x="672" y="312" width="24" height="24"/><rect x="696" y="312" width="24" height="24"/><rect x="744" y="312" width="24" height="24"/><rect x="888" y="312" width="24" height="24"/><rect x="120" y="336" width="24" height="24"/><rect x="168" y="336" width="24" height="24"/><rect x="192" y="336" width="24" height="24"/><rect x="216" y="336" width="24" height="24"/><rect x="240" y="336" width="24" height="24"/><rect x="288" y="336" width="24" height="24"/><rect x="336" y="336" width="24" height="24"/><rect x="384" y="336" width="24" height="24"/><rect x="432" y="336" width="24" height="24"/><rect x="480" y="336" width="24" height="24"/><rect x="528" y="336" width="24" height="24"/><rect x="576" y="336" width="24" height="24"/><rect x="600" y="336" width="24" height="24"/><rect x="624" y="336" width="24" height="24"/><rect x="672" y="336" width="24" height="24"/><rect x="696" y="336" width="24" height="24"/><rect x="720" y="336" width="24" height="24"/><rect x="744" y="336" width="24" height="24"/><rect x="768" y="336" width="24" height="24"/><rect x="816" y="336" width="24" height="24"/><rect x="840" y="336" width="24" height="24"/><rect x="888" y="336" width="24" height="24"/><rect x="936" y="336" width="24" height="24"/><rect x="960" y="336" width="24" height="24"/><rect x="144" y="360" width="24" height="24"/><rect x="192" y="360" width="24" height="24"/><rect x="216" y="360" width="24" height="24"/><rect x="264" y="360" width="24" height="24"/><rect x="336" y="360" width="24" height="24"/><rect x="456" y="360" width="24" height="24"/><rect x="480" y="360" width="24" height="24"/><rect x="528" y="360" width="24" height="24"/><rect x="576" y="360" width="24" height="24"/><rect x="624" y="360" width="24" height="24"/><rect x="648" y="360" width="24" height="24"/><rect x="672" y="360" width="24" height="24"/><rect x="720" y="360" width="24" height="24"/><rect x="744" y="360" width="24" height="24"/><rect x="816" y="360" width="24" height="24"/><rect x="864" y="360" width="24" height="24"/><rect x="888" y="360" width="24" height="24"/><rect x="96" y="384" width="24" height="24"/><rect x="120" y="384" width="24" height="24"/><rect x="144" y="384" width="24" height="24"/><rect x="192" y="384" width="24" height="24"/><rect x="216" y="384" width="24" height="24"/><rect x="240" y="384" width="24" height="24"/><rect x="336" y="384" width="24" height="24"/><rect x="360" y="384" width="24" height="24"/><rect x="480" y="384" width="24" height="24"/><rect x="504" y="384" width="24" height="24"/><rect x="528" y="384" width="24" height="24"/><rect x="552" y="384" width="24" height="24"/><rect x="624" y="384" width="24" height="24"/><rect x="648" y="384" width="24" height="24"/><rect x="672" y="384" width="24" height="24"/><rect x="696" y="384" width="24" height="24"/><rect x="720" y="384" width="24" height="24"/><rect x="744" y="384" width="24" height="24"/><rect x="792" y="384" width="24" height="24"/><rect x="816" y="384" width="24" height="24"/><rect x="864" y="384" width="24" height="24"/><rect x="912" y="384" width="24" height="24"/><rect x="936" y="384" width="24" height="24"/><rect x="96" y="408" width="24" height="24"/><rect x="120" y="408" width="24" height="24"/><rect x="144" y="408" width="24" height="24"/><rect x="168" y="408" width="24" height="24"/><rect x="216" y="408" width="24" height="24"/><rect x="288" y="408" width="24" height="24"/><rect x="312" y="408" width="24" height="24"/><rect x="360" y="408" width="24" height="24"/><rect x="384" y="408" width="24" height="24"/><rect x="408" y="408" width="24" height="24"/><rect x="456" y="408" width="24" height="24"/><rect x="504" y="408" width="24" height="24"/><rect x="528" y="408" width="24" height="24"/><rect x="552" y="408" width="24" height="24"/><rect x="600" y="408" width="24" height="24"/><rect x="624" y="408" width="24" height="24"/><rect x="648" y="408" width="24" height="24"/><rect x="672" y="408" width="24" height="24"/><rect x="720" y="408" width="24" height="24"/><rect x="792" y="408" width="24" height="24"/><rect x="840" y="408" width="24" height="24"/><rect x="888" y="408" width="24" height="24"/><rect x="912" y="408" width="24" height="24"/><rect x="96" y="432" width="24" height="24"/><rect x="120" y="432" width="24" height="24"/><rect x="192" y="432" width="24" height="24"/><rect x="216" y="432" width="24" height="24"/><rect x="240" y="432" width="24" height="24"/><rect x="264" y="432" width="24" height="24"/><rect x="288" y="432" width="24" height="24"/><rect x="408" y="432" width="24" height="24"/><rect x="696" y="432" width="24" height="24"/><rect x="744" y="432" width="24" height="24"/><rect x="816" y="432" width="24" height="24"/><rect x="840" y="432" width="24" height="24"/><rect x="864" y="432" width="24" height="24"/><rect x="888" y="432" width="24" height="24"/><rect x="960" y="432" width="24" height="24"/><rect x="96" y="456" width="24" height="24"/><rect x="120" y="456" width="24" height="24"/><rect x="168" y="456" width="24" height="24"/><rect x="192" y="456" width="24" height="24"/><rect x="216" y="456" width="24" height="24"/><rect x="264" y="456" width="24" height="24"/><rect x="336" y="456" width="24" height="24"/><rect x="360" y="456" width="24" height="24"/><rect x="408" y="456" width="24" height="24"/><rect x="648" y="456" width="24" height="24"/><rect x="672" y="456" width="24" height="24"/><rect x="744" y="456" width="24" height="24"/><rect x="792" y="456" width="24" height="24"/><rect x="816" y="456" width="24" height="24"/><rect x="840" y="456" width="24" height="24"/><rect x="936" y="456" width="24" height="24"/><rect x="960" y="456" width="24" height="24"/><rect x="120" y="480" width="24" height="24"/><rect x="144" y="480" width="24" height="24"/><rect x="240" y="480" width="24" height="24"/><rect x="288" y="480" width="24" height="24"/><rect x="360" y="480" width="24" height="24"/><rect x="384" y="480" width="24" height="24"/><rect x="408" y="480" width="24" height="24"/><rect x="648" y="480" width="24" height="24"/><rect x="672" y="480" width="24" height="24"/><rect x="696" y="480" width="24" height="24"/><rect x="720" y="480" width="24" height="24"/><rect x="792" y="480" width="24" height="24"/><rect x="816" y="480" width="24" height="24"/><rect x="864" y="480" width="24" height="24"/><rect x="912" y="480" width="24" height="24"/><rect x="936" y="480" width="24" height="24"/><rect x="216" y="504" width="24" height="24"/><rect x="264" y="504" width="24" height="24"/><rect x="288" y="504" width="24" height="24"/><rect x="360" y="504" width="24" height="24"/><rect x="408" y="504" width="24" height="24"/><rect x="672" y="504" width="24" height="24"/><rect x="696" y="504" width="24" height="24"/><rect x="768" y="504" width="24" height="24"/><rect x="840" y="504" width="24" height="24"/><rect x="912" y="504" width="24" height="24"/><rect x="144" y="528" width="24" height="24"/><rect x="168" y="528" width="24" height="24"/><rect x="192" y="528" width="24" height="24"/><rect x="240" y="528" width="24" height="24"/><rect x="264" y="528" width="24" height="24"/><rect x="312" y="528" width="24" height="24"/><rect x="336" y="528" width="24" height="24"/><rect x="384" y="528" width="24" height="24"/><rect x="648" y="528" width="24" height="24"/><rect x="744" y="528" width="24" height="24"/><rect x="792" y="528" width="24" height="24"/><rect x="816" y="528" width="24" height="24"/><rect x="936" y="528" width="24" height="24"/><rect x="960" y="528" width="24" height="24"/><rect x="144" y="552" width="24" height="24"/><rect x="168" y="552" width="24" height="24"/><rect x="192" y="552" width="24" height="24"/><rect x="216" y="552" width="24" height="24"/><rect x="264" y="552" width="24" height="24"/><rect x="288" y="552" width="24" height="24"/><rect x="360" y="552" width="24" height="24"/><rect x="408" y="552" width="24" height="24"/><rect x="672" y="552" width="24" height="24"/><rect x="792" y="552" width="24" height="24"/><rect x="888" y="552" width="24" height="24"/><rect x="144" y="576" width="24" height="24"/><rect x="192" y="576" width="24" height="24"/><rect x="216" y="576" width="24" height="24"/><rect x="240" y="576" width="24" height="24"/><rect x="288" y="576" width="24" height="24"/><rect x="312" y="576" width="24" height="24"/><rect x="384" y="576" width="24" height="24"/><rect x="408" y="576" width="24" height="24"/><rect x="648" y="576" width="24" height="24"/><rect x="672" y="576" width="24" height="24"/><rect x="696" y="576" width="24" height="24"/><rect x="720" y="576" width="24" height="24"/><rect x="744" y="576" width="24" height="24"/><rect x="792" y="576" width="24" height="24"/><rect x="816" y="576" width="24" height="24"/><rect x="840" y="576" width="24" height="24"/><rect x="864" y="576" width="24" height="24"/><rect x="912" y="576" width="24" height="24"/><rect x="936" y="576" width="24" height="24"/><rect x="960" y="576" width="24" height="24"/><rect x="96" y="600" width="24" height="24"/><rect x="168" y="600" width="24" height="24"/><rect x="192" y="600" width="24" height="24"/><rect x="288" y="600" width="24" height="24"/><rect x="336" y="600" width="24" height="24"/><rect x="648" y="600" width="24" height="24"/><rect x="792" y="600" width="24" height="24"/><rect x="840" y="600" width="24" height="24"/><rect x="888" y="600" width="24" height="24"/><rect x="936" y="600" width="24" height="24"/><rect x="120" y="624" width="24" height="24"/><rect x="144" y="624" width="24" height="24"/><rect x="240" y="624" width="24" height="24"/><rect x="384" y="624" width="24" height="24"/><rect x="408" y="624" width="24" height="24"/><rect x="672" y="624" width="24" height="24"/><rect x="744" y="624" width="24" height="24"/><rect x="792" y="624" width="24" height="24"/><rect x="888" y="624" width="24" height="24"/><rect x="912" y="624" width="24" height="24"/><rect x="936" y="624" width="24" height="24"/><rect x="960" y="624" width="24" height="24"/><rect x="96" y="648" width="24" height="24"/><rect x="192" y="648" width="24" height="24"/><rect x="264" y="648" width="24" height="24"/><rect x="288" y="648" width="24" height="24"/><rect x="312" y="648" width="24" height="24"/><rect x="432" y="648" width="24" height="24"/><rect x="504" y="648" width="24" height="24"/><rect x="528" y="648" width="24" height="24"/><rect x="600" y="648" width="24" height="24"/><rect x="720" y="648" width="24" height="24"/><rect x="792" y="648" width="24" height="24"/><rect x="840" y="648" width="24" height="24"/><rect x="936" y="648" width="24" height="24"/><rect x="960" y="648" width="24" height="24"/><rect x="96" y="672" width="24" height="24"/><rect x="120" y="672" width="24" height="24"/><rect x="192" y="672" width="24" height="24"/><rect x="240" y="672" width="24" height="24"/><rect x="312" y="672" width="24" height="24"/><rect x="360" y="672" width="24" height="24"/><rect x="384" y="672" width="24" height="24"/><rect x="456" y="672" width="24" height="24"/><rect x="552" y="672" width="24" height="24"/><rect x="576" y="672" width="24" height="24"/><rect x="624" y="672" width="24" height="24"/><rect x="816" y="672" width="24" height="24"/><rect x="864" y="672" width="24" height="24"/><rect x="888" y="672" width="24" height="24"/><rect x="912" y="672" width="24" height="24"/><rect x="936" y="672" width="24" height="24"/><rect x="96" y="696" width="24" height="24"/><rect x="144" y="696" width="24" height="24"/><rect x="168" y="696" width="24" height="24"/><rect x="288" y="696" width="24" height="24"/><rect x="312" y="696" width="24" height="24"/><rect x="384" y="696" width="24" height="24"/><rect x="432" y="696" width="24" height="24"/><rect x="456" y="696" width="24" height="24"/><rect x="480" y="696" width="24" height="24"/><rect x="504" y="696" width="24" height="24"/><rect x="672" y="696" width="24" height="24"/><rect x="696" y="696" width="24" height="24"/><rect x="720" y="696" width="24" height="24"/><rect x="744" y="696" width="24" height="24"/><rect x="768" y="696" width="24" height="24"/><rect x="816" y="696" width="24" height="24"/><rect x="840" y="696" width="24" height="24"/><rect x="888" y="696" width="24" height="24"/><rect x="96" y="720" width="24" height="24"/><rect x="192" y="720" width="24" height="24"/><rect x="216" y="720" width="24" height="24"/><rect x="240" y="720" width="24" height="24"/><rect x="288" y="720" width="24" height="24"/><rect x="312" y="720" width="24" height="24"/><rect x="336" y="720" width="24" height="24"/><rect x="360" y="720" width="24" height="24"/><rect x="384" y="720" width="24" height="24"/><rect x="432" y="720" width="24" height="24"/><rect x="456" y="720" width="24" height="24"/><rect x="480" y="720" width="24" height="24"/><rect x="504" y="720" width="24" height="24"/><rect x="528" y="720" width="24" height="24"/><rect x="600" y="720" width="24" height="24"/><rect x="624" y="720" width="24" height="24"/><rect x="816" y="720" width="24" height="24"/><rect x="840" y="720" width="24" height="24"/><rect x="936" y="720" width="24" height="24"/><rect x="960" y="720" width="24" height="24"/><rect x="96" y="744" width="24" height="24"/><rect x="168" y="744" width="24" height="24"/><rect x="264" y="744" width="24" height="24"/><rect x="288" y="744" width="24" height="24"/><rect x="312" y="744" width="24" height="24"/><rect x="360" y="744" width="24" height="24"/><rect x="408" y="744" width="24" height="24"/><rect x="432" y="744" width="24" height="24"/><rect x="480" y="744" width="24" height="24"/><rect x="504" y="744" width="24" height="24"/><rect x="552" y="744" width="24" height="24"/><rect x="576" y="744" width="24" height="24"/><rect x="672" y="744" width="24" height="24"/><rect x="768" y="744" width="24" height="24"/><rect x="792" y="744" width="24" height="24"/><rect x="936" y="744" width="24" height="24"/><rect x="960" y="744" width="24" height="24"/><rect x="96" y="768" width="24" height="24"/><rect x="144" y="768" width="24" height="24"/><rect x="192" y="768" width="24" height="24"/><rect x="216" y="768" width="24" height="24"/><rect x="240" y="768" width="24" height="24"/><rect x="264" y="768" width="24" height="24"/><rect x="456" y="768" width="24" height="24"/><rect x="528" y="768" width="24" height="24"/><rect x="552" y="768" width="24" height="24"/><rect x="576" y="768" width="24" height="24"/><rect x="600" y="768" width="24" height="24"/><rect x="624" y="768" width="24" height="24"/><rect x="672" y="768" width="24" height="24"/><rect x="696" y="768" width="24" height="24"/><rect x="720" y="768" width="24" height="24"/><rect x="768" y="768" width="24" height="24"/><rect x="792" y="768" width="24" height="24"/><rect x="816" y="768" width="24" height="24"/><rect x="840" y="768" width="24" height="24"/><rect x="864" y="768" width="24" height="24"/><rect x="888" y="768" width="24" height="24"/><rect x="912" y="768" width="24" height="24"/><rect x="936" y="768" width="24" height="24"/><rect x="288" y="792" width="24" height="24"/><rect x="456" y="792" width="24" height="24"/><rect x="504" y="792" width="24" height="24"/><rect x="600" y="792" width="24" height="24"/><rect x="648" y="792" width="24" height="24"/><rect x="672" y="792" width="24" height="24"/><rect x="768" y="792" width="24" height="24"/><rect x="864" y="792" width="24" height="24"/><rect x="96" y="816" width="24" height="24"/><rect x="120" y="816" width="24" height="24"/><rect x="144" y="816" width="24" height="24"/><rect x="168" y="816" width="24" height="24"/><rect x="192" y="816" width="24" height="24"/><rect x="216" y="816" width="24" height="24"/><rect x="240" y="816" width="24" height="24"/><rect x="336" y="816" width="24" height="24"/><rect x="384" y="816" width="24" height="24"/><rect x="480" y="816" width="24" height="24"/><rect x="600" y="816" width="24" height="24"/><rect x="624" y="816" width="24" height="24"/><rect x="696" y="816" width="24" height="24"/><rect x="768" y="816" width="24" height="24"/><rect x="816" y="816" width="24" height="24"/><rect x="864" y="816" width="24" height="24"/><rect x="888" y="816" width="24" height="24"/><rect x="960" y="816" width="24" height="24"/><rect x="96" y="840" width="24" height="24"/><rect x="240" y="840" width="24" height="24"/><rect x="312" y="840" width="24" height="24"/><rect x="480" y="840" width="24" height="24"/><rect x="504" y="840" width="24" height="24"/><rect x="552" y="840" width="24" height="24"/><rect x="624" y="840" width="24" height="24"/><rect x="768" y="840" width="24" height="24"/><rect x="864" y="840" width="24" height="24"/><rect x="96" y="864" width="24" height="24"/><rect x="144" y="864" width="24" height="24"/><rect x="168" y="864" width="24" height="24"/><rect x="192" y="864" width="24" height="24"/><rect x="240" y="864" width="24" height="24"/><rect x="288" y="864" width="24" height="24"/><rect x="312" y="864" width="24" height="24"/><rect x="360" y="864" width="24" height="24"/><rect x="384" y="864" width="24" height="24"/><rect x="408" y="864" width="24" height="24"/><rect x="480" y="864" width="24" height="24"/><rect x="504" y="864" width="24" height="24"/><rect x="600" y="864" width="24" height="24"/><rect x="648" y="864" width="24" height="24"/><rect x="672" y="864" width="24" height="24"/><rect x="696" y="864" width="24" height="24"/><rect x="720" y="864" width="24" height="24"/><rect x="744" y="864" width="24" height="24"/><rect x="768" y="864" width="24" height="24"/><rect x="792" y="864" width="24" height="24"/><rect x="816" y="864" width="24" height="24"/><rect x="840" y="864" width="24" height="24"/><rect x="864" y="864" width="24" height="24"/><rect x="912" y="864" width="24" height="24"/><rect x="936" y="864" width="24" height="24"/><rect x="96" y="888" width="24" height="24"/><rect x="144" y="888" width="24" height="24"/><rect x="168" y="888" width="24" height="24"/><rect x="192" y="888" width="24" height="24"/><rect x="240" y="888" width="24" height="24"/><rect x="288" y="888" width="24" height="24"/><rect x="360" y="888" width="24" height="24"/><rect x="408" y="888" width="24" height="24"/><rect x="432" y="888" width="24" height="24"/><rect x="480" y="888" width="24" height="24"/><rect x="528" y="888" width="24" height="24"/><rect x="552" y="888" width="24" height="24"/><rect x="600" y="888" width="24" height="24"/><rect x="696" y="888" width="24" height="24"/><rect x="744" y="888" width="24" height="24"/><rect x="768" y="888" width="24" height="24"/><rect x="816" y="888" width="24" height="24"/><rect x="864" y="888" width="24" height="24"/><rect x="888" y="888" width="24" height="24"/><rect x="912" y="888" width="24" height="24"/><rect x="96" y="912" width="24" height="24"/><rect x="144" y="912" width="24" height="24"/><rect x="168" y="912" width="24" height="24"/><rect x="192" y="912" width="24" height="24"/><rect x="240" y="912" width="24" height="24"/><rect x="288" y="912" width="24" height="24"/><rect x="384" y="912" width="24" height="24"/><rect x="432" y="912" width="24" height="24"/><rect x="456" y="912" width="24" height="24"/><rect x="504" y="912" width="24" height="24"/><rect x="528" y="912" width="24" height="24"/><rect x="600" y="912" width="24" height="24"/><rect x="648" y="912" width="24" height="24"/><rect x="672" y="912" width="24" height="24"/><rect x="696" y="912" width="24" height="24"/><rect x="720" y="912" width="24" height="24"/><rect x="744" y="912" width="24" height="24"/><rect x="792" y="912" width="24" height="24"/><rect x="840" y="912" width="24" height="24"/><rect x="888" y="912" width="24" height="24"/><rect x="960" y="912" width="24" height="24"/><rect x="96" y="936" width="24" height="24"/><rect x="240" y="936" width="24" height="24"/><rect x="312" y="936" width="24" height="24"/><rect x="336" y="936" width="24" height="24"/><rect x="360" y="936" width="24" height="24"/><rect x="384" y="936" width="24" height="24"/><rect x="456" y="936" width="24" height="24"/><rect x="528" y="936" width="24" height="24"/><rect x="648" y="936" width="24" height="24"/><rect x="768" y="936" width="24" height="24"/><rect x="816" y="936" width="24" height="24"/><rect x="840" y="936" width="24" height="24"/><rect x="888" y="936" width="24" height="24"/><rect x="960" y="936" width="24" height="24"/><rect x="96" y="960" width="24" height="24"/><rect x="120" y="960" width="24" height="24"/><rect x="144" y="960" width="24" height="24"/><rect x="168" y="960" width="24" height="24"/><rect x="192" y="960" width="24" height="24"/><rect x="216" y="960" width="24" height="24"/><rect x="240" y="960" width="24" height="24"/><rect x="312" y="960" width="24" height="24"/><rect x="336" y="960" width="24" height="24"/><rect x="360" y="960" width="24" height="24"/><rect x="384" y="960" width="24" height="24"/><rect x="408" y="960" width="24" height="24"/><rect x="456" y="960" width="24" height="24"/><rect x="480" y="960" width="24" height="24"/><rect x="576" y="960" width="24" height="24"/><rect x="600" y="960" width="24" height="24"/><rect x="648" y="960" width="24" height="24"/><rect x="672" y="960" width="24" height="24"/><rect x="696" y="960" width="24" height="24"/><rect x="744" y="960" width="24" height="24"/><rect x="792" y="960" width="24" height="24"/><rect x="816" y="960" width="24" height="24"/><rect x="840" y="960" width="24" height="24"/><rect x="864" y="960" width="24" height="24"/><rect x="912" y="960" width="24" height="24"/><rect x="936" y="960" width="24" height="24"/><rect x="960" y="960" width="24" height="24"/></g>
  <rect x="421.2" y="421.2" width="237.6" height="237.6" rx="24" fill="#14171A"/>
  <svg x="453.6" y="453.6" width="172.8" height="172.8" viewBox="0 0 686 686">
  <rect width="686" height="686" rx="123" fill="#17150F"/>
  <g transform="translate(87.0 212.0)">
    <path fill="#F9B233" fill-rule="evenodd" d="M42.3 261.7C42.1 261.3 42.0 245.9 42.0 227.5C42.0 199.4 41.9 194.1 41.3 194.3C41.0 194.5 32.2 201.4 21.7 209.7C11.2 218.0 2.3 225.1 1.9 225.5C1.1 226.0 1.0 225.5 0.7 215.3C0.6 209.4 0.6 204.0 0.8 203.3C1.0 202.5 3.2 200.5 7.1 197.4C14.0 192.0 19.9 187.3 32.9 177.0L42.0 169.7L42.1 143.6L42.2 117.4L45.5 114.9C47.3 113.5 51.3 110.3 54.3 107.8C57.4 105.3 60.1 103.3 60.4 103.3C60.7 103.3 60.9 110.7 60.9 128.4C60.9 143.4 61.1 153.7 61.3 153.8C61.8 154.1 62.8 153.3 95.7 127.1C107.1 118.1 125.3 103.7 136.1 95.1C146.9 86.6 159.3 76.7 163.8 73.1C183.2 57.7 186.8 54.9 187.5 54.6C188.2 54.3 188.2 55.4 188.1 66.0L188.0 77.6L185.9 79.4C184.7 80.4 167.0 94.5 146.5 110.8C125.9 127.0 104.7 143.8 99.4 148.0C94.1 152.3 83.6 160.6 76.1 166.5C68.6 172.4 62.2 177.5 61.8 177.9C61.2 178.5 61.1 184.0 60.9 220.4L60.7 262.2L51.6 262.4C43.6 262.5 42.5 262.4 42.3 261.7ZM100.9 262.2C100.7 262.0 100.6 247.1 100.6 229.1L100.6 196.5L101.6 195.4C102.2 194.9 106.4 191.5 110.9 188.0C115.4 184.4 123.2 178.3 128.2 174.3C133.2 170.4 147.9 158.7 161.0 148.3C187.3 127.4 195.3 121.1 214.3 106.0C221.4 100.3 233.6 90.7 241.2 84.6C248.9 78.6 255.5 73.6 255.9 73.6C256.6 73.6 274.8 87.9 316.6 121.2C324.9 127.9 332.0 133.3 332.4 133.3C332.9 133.3 333.0 129.6 333.0 109.4L333.0 85.4L331.5 84.1C330.7 83.4 326.0 79.7 321.2 75.9C316.4 72.1 308.6 65.9 303.7 62.0C298.9 58.2 289.9 51.1 283.7 46.1C261.4 28.5 256.7 24.7 256.4 24.2C256.2 24.0 256.0 18.7 256.0 12.5C256.0 1.8 256.0 1.3 256.9 1.5C257.6 1.7 270.1 11.5 316.1 48.1C324.9 55.2 332.4 60.8 332.6 60.6C332.9 60.5 333.0 50.1 333.0 35.0C333.0 19.3 333.2 9.7 333.5 9.8C333.7 9.8 337.5 12.8 341.9 16.2C346.3 19.7 350.3 22.9 350.8 23.2C351.7 23.9 351.7 24.6 351.9 50.3L352.2 76.7L366.9 88.4C375.1 94.9 385.5 103.2 390.2 106.9C402.3 116.5 413.7 125.6 433.2 141.1C442.5 148.5 450.5 154.7 450.9 154.8C451.7 155.1 451.7 157.6 451.6 128.3C451.5 108.2 451.6 104.2 452.1 104.2C452.7 104.2 464.8 113.6 469.2 117.4L470.5 118.5L470.5 144.3C470.5 168.2 470.5 170.2 471.3 171.0C471.7 171.5 480.3 178.4 490.3 186.3C500.3 194.2 509.1 201.2 509.7 201.7L510.9 202.7L511.3 213.9C511.6 224.5 511.5 226.0 510.7 226.0C510.5 226.0 501.6 219.1 491.0 210.6C480.4 202.1 471.4 195.1 471.1 195.1C470.6 195.1 470.5 202.3 470.4 228.7L470.3 262.2L461.3 262.2L452.3 262.2L452.0 221.1C451.8 186.3 451.7 179.9 451.1 179.2C450.8 178.8 442.1 171.8 431.8 163.6C421.5 155.5 408.6 145.2 403.1 140.9C397.7 136.6 384.2 125.8 373.1 117.0C362.0 108.2 352.7 101.0 352.4 101.0C352.1 101.0 351.9 108.3 351.9 125.1L351.9 149.2L353.4 150.4C354.3 151.1 367.1 161.2 381.9 172.9C396.8 184.7 409.5 194.9 410.2 195.6L411.4 197.0L411.4 228.7C411.4 246.1 411.3 260.8 411.2 261.4C410.9 262.4 410.8 262.5 402.2 262.5C395.5 262.5 393.5 262.3 393.1 261.8C392.7 261.4 392.5 252.9 392.4 233.1L392.3 205.0L386.8 200.6C367.5 185.2 352.7 173.4 352.3 173.4C352.1 173.4 351.9 193.4 351.8 217.8L351.7 262.2L342.5 262.2L333.3 262.2L333.0 210.0C332.9 181.3 332.7 157.7 332.6 157.6C332.4 157.5 325.7 152.2 317.6 145.7C303.3 134.4 290.9 124.6 267.8 106.2C261.7 101.3 256.4 97.3 256.0 97.3C255.6 97.3 238.2 110.8 217.4 127.3C196.7 143.8 173.5 162.2 166.1 168.1C132.3 194.9 121.9 203.1 120.7 204.2L119.5 205.4L119.4 233.8L119.2 262.2L110.2 262.4C105.2 262.4 101.0 262.3 100.9 262.2ZM232.7 232.4C232.6 232.0 232.5 227.9 232.6 223.2L232.7 214.7L241.7 214.7L250.7 214.7L250.7 223.7L250.7 232.7L241.8 232.8C234.8 232.9 232.9 232.8 232.7 232.4ZM261.3 232.4C261.2 232.0 261.1 227.9 261.2 223.2L261.3 214.7L270.3 214.7L279.3 214.7L279.3 223.7L279.3 232.7L270.4 232.8C263.4 232.9 261.5 232.8 261.3 232.4ZM269.1 204.8L261.3 204.6L261.3 195.8L261.3 187.0L270.3 187.0L279.3 187.0L279.4 195.8C279.5 204.8 279.4 205.4 277.7 205.2C277.3 205.1 273.5 205.0 269.1 204.8ZM232.7 204.2C232.6 203.9 232.5 199.9 232.6 195.3L232.7 187.0L241.8 186.9L250.9 186.8L250.8 195.7L250.7 204.6L241.8 204.7C234.8 204.8 232.9 204.7 232.7 204.2Z"/>
  </g>
</svg>
</svg>