<svg xmlns="http://www.w3.org/2000/svg" viewBox="0 0 1600 900" role="img" aria-label="Каркасный дом на лесном участке в тёплом вечернем свете">
<defs>
  <linearGradient id="sky" x1="0" y1="0" x2="0" y2="1">
    <stop offset="0" stop-color="#E4D6C3"/><stop offset=".45" stop-color="#EFE4D4"/><stop offset="1" stop-color="#F6F1E7"/>
  </linearGradient>
  <radialGradient id="sunGlow" cx=".5" cy=".5" r=".5">
    <stop offset="0" stop-color="#FBEBD2" stop-opacity=".95"/>
    <stop offset=".45" stop-color="#F7DCB0" stop-opacity=".55"/>
    <stop offset="1" stop-color="#F7DCB0" stop-opacity="0"/>
  </radialGradient>
  <linearGradient id="glassGrad" x1="0" y1="0" x2=".4" y2="1">
    <stop offset="0" stop-color="#FFF0D4"/><stop offset="1" stop-color="#FFD79B"/>
  </linearGradient>
  <linearGradient id="wallShade" x1="0" y1="0" x2="1" y2="0">
    <stop offset="0" stop-color="#000" stop-opacity=".13"/><stop offset=".4" stop-color="#000" stop-opacity="0"/>
    <stop offset="1" stop-color="#000" stop-opacity=".10"/>
  </linearGradient>
  <linearGradient id="mist" x1="0" y1="0" x2="0" y2="1">
    <stop offset="0" stop-color="#fff" stop-opacity="0"/><stop offset="1" stop-color="#fff" stop-opacity=".55"/>
  </linearGradient>
  <linearGradient id="groundGrad" x1="0" y1="0" x2="0" y2="1">
    <stop offset="0" stop-color="#E3DCCC"/><stop offset="1" stop-color="#D3CBB8"/>
  </linearGradient>
  <filter id="grain"><feTurbulence type="fractalNoise" baseFrequency=".9" numOctaves="2" stitchTiles="stitch"/>
    <feColorMatrix type="saturate" values="0"/>
    <feComponentTransfer><feFuncA type="linear" slope=".055"/></feComponentTransfer>
  </filter>
  <filter id="soft"><feGaussianBlur stdDeviation="6"/></filter>
</defs>
  <rect width="1600" height="900" fill="url(#sky)"/>
  <circle cx="1276" cy="212" r="340" fill="url(#sunGlow)"/>
  <circle cx="1276" cy="212" r="58" fill="#FBEBD2" opacity=".92"/>
  <path d="M0 520 Q260 470 520 505 T1080 496 T1600 470 V690 H0 Z" fill="#C3CEC0" opacity=".55"/>
  <path d="M-20 585 L-36.5 545.0 L-20.0 448.1 L-3.5 545.0 L-3.2 545.0 L14.0 437.2 L31.2 545.0 L29.7 545.0 L48.0 402.0 L66.3 545.0 L64.5 545.0 L82.0 402.1 L99.5 545.0 L98.9 545.0 L116.0 395.4 L133.1 545.0 L138.4 545.0 L150.0 437.9 L161.6 545.0 L173.4 545.0 L184.0 447.1 L194.6 545.0 L200.1 545.0 L218.0 424.9 L235.9 545.0 L235.6 545.0 L252.0 422.9 L268.4 545.0 L272.4 545.0 L286.0 455.4 L299.6 545.0 L305.6 545.0 L320.0 410.2 L334.4 545.0 L335.3 545.0 L354.0 428.2 L372.7 545.0 L372.5 545.0 L388.0 406.3 L403.5 545.0 L403.5 545.0 L422.0 464.2 L440.5 545.0 L439.9 545.0 L456.0 463.8 L472.1 545.0 L475.6 545.0 L490.0 397.7 L504.4 545.0 L509.8 545.0 L524.0 401.4 L538.2 545.0 L544.8 545.0 L558.0 410.2 L571.2 545.0 L573.6 545.0 L592.0 390.8 L610.4 545.0 L610.2 545.0 L626.0 465.7 L641.8 545.0 L648.5 545.0 L660.0 438.3 L671.5 545.0 L678.9 545.0 L694.0 423.9 L709.1 545.0 L711.0 545.0 L728.0 417.0 L745.0 545.0 L744.9 545.0 L762.0 471.6 L779.1 545.0 L777.8 545.0 L796.0 442.1 L814.2 545.0 L814.8 545.0 L830.0 417.0 L845.2 545.0 L853.1 545.0 L864.0 468.8 L874.9 545.0 L882.4 545.0 L898.0 389.6 L913.6 545.0 L913.8 545.0 L932.0 472.1 L950.2 545.0 L949.4 545.0 L966.0 390.6 L982.6 545.0 L986.8 545.0 L1000.0 409.9 L1013.2 545.0 L1019.8 545.0 L1034.0 438.1 L1048.2 545.0 L1056.4 545.0 L1068.0 405.1 L1079.6 545.0 L1090.9 545.0 L1102.0 432.6 L1113.1 545.0 L1120.5 545.0 L1136.0 460.0 L1151.5 545.0 L1152.6 545.0 L1170.0 422.6 L1187.4 545.0 L1186.3 545.0 L1204.0 397.8 L1221.7 545.0 L1220.4 545.0 L1238.0 458.9 L1255.6 545.0 L1253.0 545.0 L1272.0 469.3 L1291.0 545.0 L1291.8 545.0 L1306.0 437.6 L1320.2 545.0 L1327.1 545.0 L1340.0 444.3 L1352.9 545.0 L1355.1 545.0 L1374.0 467.9 L1392.9 545.0 L1396.2 545.0 L1408.0 438.3 L1419.8 545.0 L1424.6 545.0 L1442.0 415.0 L1459.4 545.0 L1457.2 545.0 L1476.0 390.1 L1494.8 545.0 L1494.8 545.0 L1510.0 444.2 L1525.2 545.0 L1532.1 545.0 L1544.0 439.3 L1555.9 545.0 L1562.1 545.0 L1578.0 433.0 L1593.9 545.0 L1599.2 545.0 L1612.0 389.7 L1624.8 545.0 L1640 585 Z" fill="#C3CEC0" opacity="0.75"/>
  <path d="M-20 640 L-39.1 600.0 L-20.0 478.7 L-0.9 600.0 L-0.3 600.0 L22.0 466.9 L44.3 600.0 L47.6 600.0 L64.0 435.4 L80.4 600.0 L89.4 600.0 L106.0 465.4 L122.6 600.0 L132.2 600.0 L148.0 434.6 L163.8 600.0 L172.0 600.0 L190.0 477.7 L208.0 600.0 L213.5 600.0 L232.0 482.8 L250.5 600.0 L257.9 600.0 L274.0 451.4 L290.1 600.0 L295.0 600.0 L316.0 453.4 L337.0 600.0 L335.7 600.0 L358.0 427.5 L380.3 600.0 L378.7 600.0 L400.0 444.6 L421.3 600.0 L420.8 600.0 L442.0 474.6 L463.2 600.0 L465.2 600.0 L484.0 496.3 L502.8 600.0 L512.8 600.0 L526.0 395.0 L539.2 600.0 L545.1 600.0 L568.0 478.5 L590.9 600.0 L592.6 600.0 L610.0 387.2 L627.4 600.0 L637.3 600.0 L652.0 414.1 L666.7 600.0 L680.1 600.0 L694.0 486.7 L707.9 600.0 L719.3 600.0 L736.0 459.3 L752.7 600.0 L754.5 600.0 L778.0 453.2 L801.5 600.0 L803.0 600.0 L820.0 493.7 L837.0 600.0 L843.9 600.0 L862.0 427.9 L880.1 600.0 L882.1 600.0 L904.0 428.8 L925.9 600.0 L930.1 600.0 L946.0 486.0 L961.9 600.0 L972.1 600.0 L988.0 455.2 L1003.9 600.0 L1013.6 600.0 L1030.0 404.7 L1046.4 600.0 L1051.9 600.0 L1072.0 413.4 L1092.1 600.0 L1099.8 600.0 L1114.0 459.6 L1128.2 600.0 L1140.7 600.0 L1156.0 428.6 L1171.3 600.0 L1178.1 600.0 L1198.0 388.2 L1217.9 600.0 L1217.4 600.0 L1240.0 434.2 L1262.6 600.0 L1263.6 600.0 L1282.0 435.3 L1300.4 600.0 L1303.9 600.0 L1324.0 459.9 L1344.1 600.0 L1343.2 600.0 L1366.0 486.2 L1388.8 600.0 L1387.7 600.0 L1408.0 462.5 L1428.3 600.0 L1429.5 600.0 L1450.0 385.9 L1470.5 600.0 L1470.7 600.0 L1492.0 388.1 L1513.3 600.0 L1516.7 600.0 L1534.0 411.6 L1551.3 600.0 L1556.4 600.0 L1576.0 395.9 L1595.6 600.0 L1596.0 600.0 L1618.0 424.1 L1640.0 600.0 L1640 640 Z" fill="#93AB94" opacity="0.9"/>
  <rect x="0" y="500" width="1600" height="180" fill="url(#mist)" opacity=".75"/>
  <path d="M-30 702 L-57.4 662.0 L-30.0 504.8 L-2.6 662.0 L5.5 662.0 L24.0 439.7 L42.5 662.0 L55.5 662.0 L78.0 508.5 L100.5 662.0 L109.5 662.0 L132.0 471.6 L154.5 662.0 L156.3 662.0 L186.0 536.3 L215.7 662.0 L214.1 662.0 L240.0 425.1 L265.9 662.0 L272.7 662.0 L294.0 428.0 L315.3 662.0 L326.1 662.0 L348.0 436.4 L369.9 662.0 L384.9 662.0 L402.0 468.7 L419.1 662.0 L427.0 662.0 L456.0 497.1 L485.0 662.0 L491.8 662.0 L510.0 479.4 L528.2 662.0 L538.9 662.0 L564.0 425.7 L589.1 662.0 L590.0 662.0 L618.0 457.4 L646.0 662.0 L643.6 662.0 L672.0 546.3 L700.4 662.0 L707.5 662.0 L726.0 444.3 L744.5 662.0 L750.8 662.0 L780.0 510.9 L809.2 662.0 L805.4 662.0 L834.0 470.9 L862.6 662.0 L860.5 662.0 L888.0 509.5 L915.5 662.0 L922.0 662.0 L942.0 436.9 L962.0 662.0 L968.4 662.0 L996.0 459.0 L1023.6 662.0 L1031.9 662.0 L1050.0 426.3 L1068.1 662.0 L1079.5 662.0 L1104.0 543.9 L1128.5 662.0 L1131.5 662.0 L1158.0 485.9 L1184.5 662.0 L1186.3 662.0 L1212.0 477.9 L1237.7 662.0 L1242.0 662.0 L1266.0 433.5 L1290.0 662.0 L1289.9 662.0 L1320.0 458.6 L1350.1 662.0 L1345.8 662.0 L1374.0 454.3 L1402.2 662.0 L1403.8 662.0 L1428.0 534.8 L1452.2 662.0 L1455.6 662.0 L1482.0 422.3 L1508.4 662.0 L1515.2 662.0 L1536.0 503.1 L1556.8 662.0 L1560.7 662.0 L1590.0 519.9 L1619.3 662.0 L1640 702 Z" fill="#5F7D66" opacity="0.95"/>
  <path d="M0 690 Q400 664 820 684 T1600 660 V900 H0 Z" fill="url(#groundGrad)"/>
  <g transform="translate(212 742) scale(1.35)">
    <rect x="-4" y="-24" width="8" height="28" rx="3" fill="#3E5748" opacity=".8"/>
    <path d="M0 -168 L34 -104 H-34 Z" fill="#3E5748" opacity=".9"/>
    <path d="M0 -132 L44 -58 H-44 Z" fill="#3E5748"/>
    <path d="M0 -92 L54 -14 H-54 Z" fill="#3E5748"/>
  </g>
  <g transform="translate(352 712) scale(0.78)">
    <rect x="-4" y="-24" width="8" height="28" rx="3" fill="#3E5748" opacity=".8"/>
    <path d="M0 -168 L34 -104 H-34 Z" fill="#5F7D66" opacity=".9"/>
    <path d="M0 -132 L44 -58 H-44 Z" fill="#5F7D66"/>
    <path d="M0 -92 L54 -14 H-54 Z" fill="#5F7D66"/>
  </g>
  <g transform="translate(58 724) scale(0.95)">
    <rect x="-4" y="-24" width="8" height="28" rx="3" fill="#3E5748" opacity=".8"/>
    <path d="M0 -168 L34 -104 H-34 Z" fill="#5F7D66" opacity=".9"/>
    <path d="M0 -132 L44 -58 H-44 Z" fill="#5F7D66"/>
    <path d="M0 -92 L54 -14 H-54 Z" fill="#5F7D66"/>
  </g>
  <g>
    <ellipse cx="1010" cy="756" rx="374.4" ry="26" fill="#BFB7A2" opacity=".45"/>
    <g>
      <path d="M594 742 H750 V754 H586 Z" fill="#C89A64"/>
      <path d="M586 754 H750 v6 H584 Z" fill="#A87B47" opacity=".65"/>
      <path d="M588 631.52 H750 v11.648000000000001 H590 Z" fill="#2E3A33" opacity=".92"/>
      <rect x="594" y="631.52" width="11.648000000000001" height="110.47999999999998" fill="#A87B47"/>
      <rect x="679.8" y="631.52" width="10.192" height="110.47999999999998" fill="#A87B47" opacity=".75"/>
      <rect x="594" y="697.8" width="156" height="8.008000000000001" fill="#A87B47" opacity=".45"/>
    </g>
    <rect x="1098.4" y="443.696" width="26" height="109.616" rx="2" fill="#8C8578"/>
    <rect x="750" y="581.6" width="520" height="166.4" fill="#C89A64"/>
    <polygon points="750,581.6 1010,404.8 1270,581.6" fill="#DDB684"/>
    <polygon points="1010,404.8 1270,581.6 1010,581.6" fill="#A87B47" opacity=".22"/>
    <rect x="750" y="581.6" width="520" height="166.4" fill="url(#wallShade)"/>
    <line x1="750" y1="607.6" x2="1270" y2="607.6" stroke="#A87B47" stroke-width=".9" opacity=".2"/><line x1="750" y1="633.6" x2="1270" y2="633.6" stroke="#A87B47" stroke-width=".9" opacity=".2"/><line x1="750" y1="659.6" x2="1270" y2="659.6" stroke="#A87B47" stroke-width=".9" opacity=".2"/><line x1="750" y1="685.6" x2="1270" y2="685.6" stroke="#A87B47" stroke-width=".9" opacity=".2"/><line x1="750" y1="711.6" x2="1270" y2="711.6" stroke="#A87B47" stroke-width=".9" opacity=".2"/><line x1="750" y1="737.6" x2="1270" y2="737.6" stroke="#A87B47" stroke-width=".9" opacity=".2"/>
    <path d="M724 587.424 L1010 396.064 L1296 587.424 L1296 604.8960000000001 L1010 414.992 L724 604.8960000000001 Z" fill="#2E3A33"/>
    <path d="M724 587.424 L1010 396.064 L1010 406.25600000000003 L737 596.16  Z" fill="#3F5049" opacity=".9"/>
    <g><rect x="952.8" y="479.05600000000004" width="114.4" height="60.11200000000001" rx="2" fill="url(#glassGrad)"/><line x1="1010" y1="479.05600000000004" x2="1010" y2="539.168" stroke="#F6F1E7" stroke-width="4.5760000000000005"/>
      <rect x="952.8" y="479.05600000000004" width="114.4" height="60.11200000000001" rx="2" fill="none" stroke="#F6F1E7" stroke-width="6.292000000000001"/></g><g><rect x="791.6" y="618.2080000000001" width="156" height="96.512" rx="2" fill="url(#glassGrad)"/><line x1="843.6" y1="618.2080000000001" x2="843.6" y2="714.72" stroke="#F6F1E7" stroke-width="6.24"/><line x1="895.6" y1="618.2080000000001" x2="895.6" y2="714.72" stroke="#F6F1E7" stroke-width="6.24"/>
      <rect x="791.6" y="618.2080000000001" width="156" height="96.512" rx="2" fill="none" stroke="#F6F1E7" stroke-width="8.58"/></g><g><rect x="994.4" y="631.71968" width="52" height="69.48864" rx="2" fill="url(#glassGrad)"/><line x1="1020.4" y1="631.71968" x2="1020.4" y2="701.2083200000001" stroke="#F6F1E7" stroke-width="2.08"/>
      <rect x="994.4" y="631.71968" width="52" height="69.48864" rx="2" fill="none" stroke="#F6F1E7" stroke-width="3"/></g><g><rect x="1072.4" y="631.71968" width="52" height="69.48864" rx="2" fill="url(#glassGrad)"/><line x1="1098.4" y1="631.71968" x2="1098.4" y2="701.2083200000001" stroke="#F6F1E7" stroke-width="2.08"/>
      <rect x="1072.4" y="631.71968" width="52" height="69.48864" rx="2" fill="none" stroke="#F6F1E7" stroke-width="3"/></g><g>
      <rect x="1189.4" y="644.832" width="49.4" height="103.168" rx="2" fill="#2E3A33"/>
      <rect x="1195.6399999999999" y="659.808" width="14.56" height="43.264" rx="2" fill="url(#glassGrad)" opacity=".8"/>
      <rect x="1181.6" y="744" width="65" height="6" rx="2" fill="#8C8578" opacity=".55"/>
    </g>
  </g>
  <g transform="translate(1418 740) scale(1.20)">
    <rect x="-4" y="-24" width="8" height="28" rx="3" fill="#3E5748" opacity=".8"/>
    <path d="M0 -168 L34 -104 H-34 Z" fill="#3E5748" opacity=".9"/>
    <path d="M0 -132 L44 -58 H-44 Z" fill="#3E5748"/>
    <path d="M0 -92 L54 -14 H-54 Z" fill="#3E5748"/>
  </g>
  <g transform="translate(1546 770) scale(1.50)">
    <rect x="-4" y="-24" width="8" height="28" rx="3" fill="#3E5748" opacity=".8"/>
    <path d="M0 -168 L34 -104 H-34 Z" fill="#3E5748" opacity=".9"/>
    <path d="M0 -132 L44 -58 H-44 Z" fill="#3E5748"/>
    <path d="M0 -92 L54 -14 H-54 Z" fill="#3E5748"/>
  </g>
  <path d="M0 852 Q380 826 760 844 T1600 826 V900 H0 Z" fill="#BFB7A2" opacity=".32"/>
  <rect width="1600" height="900" filter="url(#grain)" opacity=".5"/>
</svg>